<svg width="96" height="96" viewBox="0 0 96 96" fill="none" xmlns="http://www.w3.org/2000/svg">
  <defs>
    <linearGradient id="bg" x1="12" y1="10" x2="84" y2="86" gradientUnits="userSpaceOnUse">
      <stop offset="0" stop-color="#38BDF8"/>
      <stop offset="0.55" stop-color="#2563EB"/>
      <stop offset="1" stop-color="#1E3A8A"/>
    </linearGradient>
    <linearGradient id="edge" x1="22" y1="16" x2="75" y2="82" gradientUnits="userSpaceOnUse">
      <stop offset="0" stop-color="#E0F2FE" stop-opacity="0.9"/>
      <stop offset="1" stop-color="#93C5FD" stop-opacity="0.22"/>
    </linearGradient>
    <linearGradient id="pin" x1="60" y1="36" x2="73" y2="62" gradientUnits="userSpaceOnUse">
      <stop offset="0" stop-color="#FDBA74"/>
      <stop offset="1" stop-color="#F97316"/>
    </linearGradient>
    <filter id="shadow" x="6" y="7" width="84" height="84" filterUnits="userSpaceOnUse" color-interpolation-filters="sRGB">
      <feDropShadow dx="0" dy="5" stdDeviation="5" flood-color="#0F172A" flood-opacity="0.28"/>
    </filter>
  </defs>

  <g filter="url(#shadow)">
    <rect x="12" y="10" width="72" height="72" rx="20" fill="url(#bg)"/>
    <rect x="13.25" y="11.25" width="69.5" height="69.5" rx="18.75" stroke="url(#edge)" stroke-width="2.5"/>
  </g>

  <path d="M28 61V30H34.2L47.4 49V30H54V61H47.9L34.6 42V61H28Z" fill="white"/>
  <path d="M52 38.5L61.8 48.2" stroke="#DBEAFE" stroke-width="2.8" stroke-linecap="round"/>
  <path d="M66.2 65.5C66.2 65.5 59.2 58.5 59.2 53.8C59.2 49.7 62.3 46.5 66.2 46.5C70.1 46.5 73.2 49.7 73.2 53.8C73.2 58.5 66.2 65.5 66.2 65.5Z" fill="url(#pin)"/>
  <circle cx="66.2" cy="53.8" r="2.2" fill="white"/>
</svg>
