<svg width="96" height="96" viewBox="0 0 96 96" fill="none" xmlns="http://www.w3.org/2000/svg">
  <defs>
    <linearGradient id="navios-bg" x1="10" y1="8" x2="86" y2="88" gradientUnits="userSpaceOnUse">
      <stop offset="0" stop-color="#0EA5E9"/>
      <stop offset="0.52" stop-color="#2563EB"/>
      <stop offset="1" stop-color="#1E40AF"/>
    </linearGradient>
    <linearGradient id="navios-edge" x1="16" y1="12" x2="80" y2="84" gradientUnits="userSpaceOnUse">
      <stop offset="0" stop-color="#93C5FD" stop-opacity="0.95"/>
      <stop offset="1" stop-color="#BFDBFE" stop-opacity="0.15"/>
    </linearGradient>
    <linearGradient id="navios-pin" x1="58" y1="36" x2="74" y2="64" gradientUnits="userSpaceOnUse">
      <stop offset="0" stop-color="#F59E0B"/>
      <stop offset="1" stop-color="#EA580C"/>
    </linearGradient>
    <filter id="navios-shadow" x="8" y="8" width="80" height="82" filterUnits="userSpaceOnUse" color-interpolation-filters="sRGB">
      <feDropShadow dx="0" dy="6" stdDeviation="5" flood-color="#0F172A" flood-opacity="0.3"/>
    </filter>
  </defs>

  <g filter="url(#navios-shadow)">
    <rect x="12" y="10" width="72" height="72" rx="20" fill="url(#navios-bg)"/>
    <rect x="13.5" y="11.5" width="69" height="69" rx="18.5" stroke="url(#navios-edge)" stroke-width="3"/>
  </g>

  <path d="M26 61V28H33L46 47V28H54V61H47L34 42V61H26Z" fill="#FFFFFF"/>
  <circle cx="44" cy="46" r="2.7" fill="#DBEAFE"/>

  <path d="M66 66C66 66 58.8 58.7 58.8 53.7C58.8 49.4 62.1 46 66 46C69.9 46 73.2 49.4 73.2 53.7C73.2 58.7 66 66 66 66Z" fill="url(#navios-pin)"/>
  <circle cx="66" cy="53.7" r="2.3" fill="#FFFFFF"/>
</svg>
